<?xml version="1.0" encoding="UTF-8"?>
<svg width="512" height="512" viewBox="0 0 512 512" xmlns="http://www.w3.org/2000/svg">
  <defs>
    <linearGradient id="grad1" x1="0%" y1="0%" x2="100%" y2="100%">
      <stop offset="0%" style="stop-color:#0D9488;stop-opacity:1" />
      <stop offset="100%" style="stop-color:#7E22CE;stop-opacity:1" />
    </linearGradient>
    <filter id="shadow" x="-20%" y="-20%" width="140%" height="140%">
      <feDropShadow dx="2" dy="2" stdDeviation="4" flood-opacity="0.2"/>
    </filter>
  </defs>
  
  <!-- Background Circle -->
  <circle cx="256" cy="256" r="240" fill="white"/>
  
  <!-- Outer Ring (Representing Community) -->
  <path d="M256 32c123.712 0 224 100.288 224 224S379.712 480 256 480 32 379.712 32 256 132.288 32 256 32" 
        fill="none" stroke="url(#grad1)" stroke-width="24"/>
  
  <!-- Inner Connecting Circles (Representing Chama Members) -->
  <g filter="url(#shadow)">
    <!-- Center Circle -->
    <circle cx="256" cy="256" r="80" fill="url(#grad1)"/>
    
    <!-- Orbiting Circles -->
    <circle cx="256" cy="136" r="40" fill="#0D9488"/>
    <circle cx="376" cy="256" r="40" fill="#7E22CE"/>
    <circle cx="256" cy="376" r="40" fill="#0D9488"/>
    <circle cx="136" cy="256" r="40" fill="#7E22CE"/>
    
    <!-- Connecting Lines -->
    <line x1="256" y1="176" x2="256" y2="336" stroke="white" stroke-width="8"/>
    <line x1="176" y1="256" x2="336" y2="256" stroke="white" stroke-width="8"/>
  </g>
  
  <!-- Center Icon (M-PESA Reference) -->
  <g fill="white">
    <path d="M256 216c22.091 0 40 17.909 40 40s-17.909 40-40 40-40-17.909-40-40 17.909-40 40-40zm0 16c-13.255 0-24 10.745-24 24s10.745 24 24 24 24-10.745 24-24-10.745-24-24-24z"/>
  </g>
</svg>
